<?xml version="1.0" encoding="UTF-8" standalone="no"?>
<!DOCTYPE svg PUBLIC "-//W3C//DTD SVG 1.1//EN"
 "http://www.w3.org/Graphics/SVG/1.1/DTD/svg11.dtd">
<!-- Generated by graphviz version 2.38.0 (20140413.2041)
 -->
<!-- Title: dependencies Pages: 1 -->
<svg width="4956pt" height="284pt"
 viewBox="0.00 0.00 4956.00 284.00" xmlns="http://www.w3.org/2000/svg" xmlns:xlink="http://www.w3.org/1999/xlink">
<g id="graph0" class="graph" transform="scale(1 1) rotate(0) translate(4 280)">
<title>dependencies</title>
<polygon fill="white" stroke="none" points="-4,4 -4,-280 4952,-280 4952,4 -4,4"/>
<text text-anchor="start" x="2453.01" y="-42.4" font-family="sans-serif" font-weight="bold" font-size="14.00">Legend</text>
<polygon fill="#ffffb3" stroke="none" points="2240,-10 2240,-30 2260,-30 2260,-10 2240,-10"/>
<text text-anchor="start" x="2263.63" y="-15.4" font-family="sans-serif" font-size="14.00"> &#160;Declarations</text>
<polygon fill="#8dd3c7" stroke="none" points="2353,-10 2353,-30 2373,-30 2373,-10 2353,-10"/>
<text text-anchor="start" x="2376.73" y="-15.4" font-family="sans-serif" font-size="14.00"> &#160;Module</text>
<polygon fill="#80b1d3" stroke="none" points="2439,-10 2439,-30 2459,-30 2459,-10 2439,-10"/>
<text text-anchor="start" x="2462.78" y="-15.4" font-family="sans-serif" font-size="14.00"> &#160;Bootstrap</text>
<polygon fill="#fdb462" stroke="none" points="2536,-10 2536,-30 2556,-30 2556,-10 2536,-10"/>
<text text-anchor="start" x="2559.67" y="-15.4" font-family="sans-serif" font-size="14.00"> &#160;Providers</text>
<polygon fill="#fb8072" stroke="none" points="2632,-10 2632,-30 2652,-30 2652,-10 2632,-10"/>
<text text-anchor="start" x="2655.73" y="-15.4" font-family="sans-serif" font-size="14.00"> &#160;Exports</text>
<g id="clust1" class="cluster"><title>cluster_AppModule</title>
<polygon fill="none" stroke="black" stroke-dasharray="1,5" points="8,-70 8,-268 4940,-268 4940,-70 8,-70"/>
</g>
<g id="clust2" class="cluster"><title>cluster_AppModule_declarations</title>
<polygon fill="none" stroke="black" points="1748,-78 1748,-130 4932,-130 4932,-78 1748,-78"/>
</g>
<g id="clust24" class="cluster"><title>cluster_AppModule_imports</title>
<polygon fill="none" stroke="black" points="826,-78 826,-130 1740,-130 1740,-78 826,-78"/>
</g>
<g id="clust26" class="cluster"><title>cluster_AppModule_bootstrap</title>
<polygon fill="none" stroke="black" points="2307,-208 2307,-260 2431,-260 2431,-208 2307,-208"/>
</g>
<g id="clust27" class="cluster"><title>cluster_AppModule_providers</title>
<polygon fill="none" stroke="black" points="16,-78 16,-130 818,-130 818,-78 16,-78"/>
</g>
<!-- AppComponent -->
<g id="node1" class="node"><title>AppComponent</title>
<polygon fill="#ffffb3" stroke="black" points="4923.94,-122 4818.06,-122 4818.06,-86 4923.94,-86 4923.94,-122"/>
<text text-anchor="middle" x="4871" y="-99.8" font-family="Times,serif" font-size="14.00">AppComponent</text>
</g>
<!-- AppModule -->
<g id="node22" class="node"><title>AppModule</title>
<polygon fill="#8dd3c7" stroke="black" points="2410.66,-187 2407.66,-191 2386.66,-191 2383.66,-187 2327.34,-187 2327.34,-151 2410.66,-151 2410.66,-187"/>
<text text-anchor="middle" x="2369" y="-164.8" font-family="Times,serif" font-size="14.00">AppModule</text>
</g>
<!-- AppComponent&#45;&gt;AppModule -->
<g id="edge1" class="edge"><title>AppComponent&#45;&gt;AppModule</title>
<path fill="none" stroke="black" d="M4871,-122.38C4871,-146.279 4871,-185 4871,-185 4871,-185 2420.86,-185 2420.86,-185"/>
<polygon fill="black" stroke="black" points="2420.86,-181.5 2410.86,-185 2420.86,-188.5 2420.86,-181.5"/>
</g>
<!-- HomeComponent -->
<g id="node2" class="node"><title>HomeComponent</title>
<polygon fill="#ffffb3" stroke="black" points="4800.55,-122 4685.45,-122 4685.45,-86 4800.55,-86 4800.55,-122"/>
<text text-anchor="middle" x="4743" y="-99.8" font-family="Times,serif" font-size="14.00">HomeComponent</text>
</g>
<!-- HomeComponent&#45;&gt;AppModule -->
<g id="edge2" class="edge"><title>HomeComponent&#45;&gt;AppModule</title>
<path fill="none" stroke="black" d="M4743,-122.323C4743,-145.66 4743,-183 4743,-183 4743,-183 2420.71,-183 2420.71,-183"/>
<polygon fill="black" stroke="black" points="2420.71,-179.5 2410.71,-183 2420.71,-186.5 2420.71,-179.5"/>
</g>
<!-- LoginComponent -->
<g id="node3" class="node"><title>LoginComponent</title>
<polygon fill="#ffffb3" stroke="black" points="4667.28,-122 4552.72,-122 4552.72,-86 4667.28,-86 4667.28,-122"/>
<text text-anchor="middle" x="4610" y="-99.8" font-family="Times,serif" font-size="14.00">LoginComponent</text>
</g>
<!-- LoginComponent&#45;&gt;AppModule -->
<g id="edge3" class="edge"><title>LoginComponent&#45;&gt;AppModule</title>
<path fill="none" stroke="black" d="M4610,-122.248C4610,-145.018 4610,-181 4610,-181 4610,-181 2420.78,-181 2420.78,-181"/>
<polygon fill="black" stroke="black" points="2420.78,-177.5 2410.78,-181 2420.78,-184.5 2420.78,-177.5"/>
</g>
<!-- DoLoginComponent -->
<g id="node4" class="node"><title>DoLoginComponent</title>
<polygon fill="#ffffb3" stroke="black" points="4534.88,-122 4403.12,-122 4403.12,-86 4534.88,-86 4534.88,-122"/>
<text text-anchor="middle" x="4469" y="-99.8" font-family="Times,serif" font-size="14.00">DoLoginComponent</text>
</g>
<!-- DoLoginComponent&#45;&gt;AppModule -->
<g id="edge4" class="edge"><title>DoLoginComponent&#45;&gt;AppModule</title>
<path fill="none" stroke="black" d="M4469,-122.155C4469,-144.352 4469,-179 4469,-179 4469,-179 2420.95,-179 2420.95,-179"/>
<polygon fill="black" stroke="black" points="2420.95,-175.5 2410.95,-179 2420.95,-182.5 2420.95,-175.5"/>
</g>
<!-- Navigation -->
<g id="node5" class="node"><title>Navigation</title>
<polygon fill="#ffffb3" stroke="black" points="4385.21,-122 4306.79,-122 4306.79,-86 4385.21,-86 4385.21,-122"/>
<text text-anchor="middle" x="4346" y="-99.8" font-family="Times,serif" font-size="14.00">Navigation</text>
</g>
<!-- Navigation&#45;&gt;AppModule -->
<g id="edge5" class="edge"><title>Navigation&#45;&gt;AppModule</title>
<path fill="none" stroke="black" d="M4346,-122.045C4346,-143.662 4346,-177 4346,-177 4346,-177 2420.75,-177 2420.75,-177"/>
<polygon fill="black" stroke="black" points="2420.75,-173.5 2410.75,-177 2420.75,-180.5 2420.75,-173.5"/>
</g>
<!-- DashboardComponent -->
<g id="node6" class="node"><title>DashboardComponent</title>
<polygon fill="#ffffb3" stroke="black" points="4288.97,-122 4147.03,-122 4147.03,-86 4288.97,-86 4288.97,-122"/>
<text text-anchor="middle" x="4218" y="-99.8" font-family="Times,serif" font-size="14.00">DashboardComponent</text>
</g>
<!-- DashboardComponent&#45;&gt;AppModule -->
<g id="edge6" class="edge"><title>DashboardComponent&#45;&gt;AppModule</title>
<path fill="none" stroke="black" d="M4218,-122.284C4218,-143.321 4218,-175 4218,-175 4218,-175 2421.09,-175 2421.09,-175"/>
<polygon fill="black" stroke="black" points="2421.09,-171.5 2411.09,-175 2421.09,-178.5 2421.09,-171.5"/>
</g>
<!-- AdAccountDetailsComponent -->
<g id="node7" class="node"><title>AdAccountDetailsComponent</title>
<polygon fill="#ffffb3" stroke="black" points="4128.52,-122 3943.48,-122 3943.48,-86 4128.52,-86 4128.52,-122"/>
<text text-anchor="middle" x="4036" y="-99.8" font-family="Times,serif" font-size="14.00">AdAccountDetailsComponent</text>
</g>
<!-- AdAccountDetailsComponent&#45;&gt;AppModule -->
<g id="edge7" class="edge"><title>AdAccountDetailsComponent&#45;&gt;AppModule</title>
<path fill="none" stroke="black" d="M4036,-122.129C4036,-142.572 4036,-173 4036,-173 4036,-173 2421.04,-173 2421.04,-173"/>
<polygon fill="black" stroke="black" points="2421.04,-169.5 2411.04,-173 2421.04,-176.5 2421.04,-169.5"/>
</g>
<!-- AdsComponent -->
<g id="node8" class="node"><title>AdsComponent</title>
<polygon fill="#ffffb3" stroke="black" points="3924.88,-122 3821.12,-122 3821.12,-86 3924.88,-86 3924.88,-122"/>
<text text-anchor="middle" x="3873" y="-99.8" font-family="Times,serif" font-size="14.00">AdsComponent</text>
</g>
<!-- AdsComponent&#45;&gt;AppModule -->
<g id="edge8" class="edge"><title>AdsComponent&#45;&gt;AppModule</title>
<path fill="none" stroke="black" d="M3873,-122.308C3873,-142.146 3873,-171 3873,-171 3873,-171 2420.8,-171 2420.8,-171"/>
<polygon fill="black" stroke="black" points="2420.8,-167.5 2410.8,-171 2420.8,-174.5 2420.8,-167.5"/>
</g>
<!-- AdsetsComponent -->
<g id="node9" class="node"><title>AdsetsComponent</title>
<polygon fill="#ffffb3" stroke="black" points="3802.93,-122 3683.07,-122 3683.07,-86 3802.93,-86 3802.93,-122"/>
<text text-anchor="middle" x="3743" y="-99.8" font-family="Times,serif" font-size="14.00">AdsetsComponent</text>
</g>
<!-- AdsetsComponent&#45;&gt;AppModule -->
<g id="edge9" class="edge"><title>AdsetsComponent&#45;&gt;AppModule</title>
<path fill="none" stroke="black" d="M3743,-122.169C3743,-141.09 3743,-168 3743,-168 3743,-168 2420.87,-168 2420.87,-168"/>
<polygon fill="black" stroke="black" points="2420.87,-164.5 2410.87,-168 2420.87,-171.5 2420.87,-164.5"/>
</g>
<!-- CampaignsComponent -->
<g id="node10" class="node"><title>CampaignsComponent</title>
<polygon fill="#ffffb3" stroke="black" points="3665.32,-122 3520.68,-122 3520.68,-86 3665.32,-86 3665.32,-122"/>
<text text-anchor="middle" x="3593" y="-99.8" font-family="Times,serif" font-size="14.00">CampaignsComponent</text>
</g>
<!-- CampaignsComponent&#45;&gt;AppModule -->
<g id="edge10" class="edge"><title>CampaignsComponent&#45;&gt;AppModule</title>
<path fill="none" stroke="black" d="M3593,-122.267C3593,-140.555 3593,-166 3593,-166 3593,-166 2420.78,-166 2420.78,-166"/>
<polygon fill="black" stroke="black" points="2420.78,-162.5 2410.78,-166 2420.78,-169.5 2420.78,-162.5"/>
</g>
<!-- PageDetailsComponent -->
<g id="node11" class="node"><title>PageDetailsComponent</title>
<polygon fill="#ffffb3" stroke="black" points="3503.2,-122 3354.8,-122 3354.8,-86 3503.2,-86 3503.2,-122"/>
<text text-anchor="middle" x="3429" y="-99.8" font-family="Times,serif" font-size="14.00">PageDetailsComponent</text>
</g>
<!-- PageDetailsComponent&#45;&gt;AppModule -->
<g id="edge11" class="edge"><title>PageDetailsComponent&#45;&gt;AppModule</title>
<path fill="none" stroke="black" d="M3429,-122.002C3429,-139.675 3429,-164 3429,-164 3429,-164 2420.88,-164 2420.88,-164"/>
<polygon fill="black" stroke="black" points="2420.88,-160.5 2410.88,-164 2420.88,-167.5 2420.88,-160.5"/>
</g>
<!-- PostDetailsComponent -->
<g id="node12" class="node"><title>PostDetailsComponent</title>
<polygon fill="#ffffb3" stroke="black" points="3336.6,-122 3191.4,-122 3191.4,-86 3336.6,-86 3336.6,-122"/>
<text text-anchor="middle" x="3264" y="-99.8" font-family="Times,serif" font-size="14.00">PostDetailsComponent</text>
</g>
<!-- PostDetailsComponent&#45;&gt;AppModule -->
<g id="edge12" class="edge"><title>PostDetailsComponent&#45;&gt;AppModule</title>
<path fill="none" stroke="black" d="M3264,-122.034C3264,-139.06 3264,-162 3264,-162 3264,-162 2420.67,-162 2420.67,-162"/>
<polygon fill="black" stroke="black" points="2420.67,-158.5 2410.67,-162 2420.67,-165.5 2420.67,-158.5"/>
</g>
<!-- MetricsBarChartComponent -->
<g id="node13" class="node"><title>MetricsBarChartComponent</title>
<polygon fill="#ffffb3" stroke="black" points="3173.91,-122 2998.09,-122 2998.09,-86 3173.91,-86 3173.91,-122"/>
<text text-anchor="middle" x="3086" y="-99.8" font-family="Times,serif" font-size="14.00">MetricsBarChartComponent</text>
</g>
<!-- MetricsBarChartComponent&#45;&gt;AppModule -->
<g id="edge13" class="edge"><title>MetricsBarChartComponent&#45;&gt;AppModule</title>
<path fill="none" stroke="black" d="M3086,-122.027C3086,-138.398 3086,-160 3086,-160 3086,-160 2420.91,-160 2420.91,-160"/>
<polygon fill="black" stroke="black" points="2420.91,-156.5 2410.91,-160 2420.91,-163.5 2420.91,-156.5"/>
</g>
<!-- MetricsPieChartComponent -->
<g id="node14" class="node"><title>MetricsPieChartComponent</title>
<polygon fill="#ffffb3" stroke="black" points="2980.58,-122 2807.42,-122 2807.42,-86 2980.58,-86 2980.58,-122"/>
<text text-anchor="middle" x="2894" y="-99.8" font-family="Times,serif" font-size="14.00">MetricsPieChartComponent</text>
</g>
<!-- MetricsPieChartComponent&#45;&gt;AppModule -->
<g id="edge14" class="edge"><title>MetricsPieChartComponent&#45;&gt;AppModule</title>
<path fill="none" stroke="black" d="M2894,-122.282C2894,-137.948 2894,-158 2894,-158 2894,-158 2421.08,-158 2421.08,-158"/>
<polygon fill="black" stroke="black" points="2421.08,-154.5 2411.08,-158 2421.08,-161.5 2421.08,-154.5"/>
</g>
<!-- MetricsLineChartComponent -->
<g id="node15" class="node"><title>MetricsLineChartComponent</title>
<polygon fill="#ffffb3" stroke="black" points="2789.35,-122 2608.65,-122 2608.65,-86 2789.35,-86 2789.35,-122"/>
<text text-anchor="middle" x="2699" y="-99.8" font-family="Times,serif" font-size="14.00">MetricsLineChartComponent</text>
</g>
<!-- MetricsLineChartComponent&#45;&gt;AppModule -->
<g id="edge15" class="edge"><title>MetricsLineChartComponent&#45;&gt;AppModule</title>
<path fill="none" stroke="black" d="M2699,-122.187C2699,-137.182 2699,-156 2699,-156 2699,-156 2420.79,-156 2420.79,-156"/>
<polygon fill="black" stroke="black" points="2420.79,-152.5 2410.79,-156 2420.79,-159.5 2420.79,-152.5"/>
</g>
<!-- MetricsCriteriaFilter -->
<g id="node16" class="node"><title>MetricsCriteriaFilter</title>
<polygon fill="#ffffb3" stroke="black" points="2590.85,-122 2459.15,-122 2459.15,-86 2590.85,-86 2590.85,-122"/>
<text text-anchor="middle" x="2525" y="-99.8" font-family="Times,serif" font-size="14.00">MetricsCriteriaFilter</text>
</g>
<!-- MetricsCriteriaFilter&#45;&gt;AppModule -->
<g id="edge16" class="edge"><title>MetricsCriteriaFilter&#45;&gt;AppModule</title>
<path fill="none" stroke="black" d="M2525,-122.051C2525,-136.373 2525,-154 2525,-154 2525,-154 2420.81,-154 2420.81,-154"/>
<polygon fill="black" stroke="black" points="2420.81,-150.5 2410.81,-154 2420.81,-157.5 2420.81,-150.5"/>
</g>
<!-- MetricsObjectiveFilter -->
<g id="node17" class="node"><title>MetricsObjectiveFilter</title>
<polygon fill="#ffffb3" stroke="black" points="2440.51,-122 2297.49,-122 2297.49,-86 2440.51,-86 2440.51,-122"/>
<text text-anchor="middle" x="2369" y="-99.8" font-family="Times,serif" font-size="14.00">MetricsObjectiveFilter</text>
</g>
<!-- MetricsObjectiveFilter&#45;&gt;AppModule -->
<g id="edge17" class="edge"><title>MetricsObjectiveFilter&#45;&gt;AppModule</title>
<path fill="none" stroke="black" d="M2369,-122.106C2369,-122.106 2369,-140.991 2369,-140.991"/>
<polygon fill="black" stroke="black" points="2365.5,-140.991 2369,-150.991 2372.5,-140.991 2365.5,-140.991"/>
</g>
<!-- SearchPipe -->
<g id="node18" class="node"><title>SearchPipe</title>
<polygon fill="#ffffb3" stroke="black" points="2279.47,-122 2200.53,-122 2200.53,-86 2279.47,-86 2279.47,-122"/>
<text text-anchor="middle" x="2240" y="-99.8" font-family="Times,serif" font-size="14.00">SearchPipe</text>
</g>
<!-- SearchPipe&#45;&gt;AppModule -->
<g id="edge18" class="edge"><title>SearchPipe&#45;&gt;AppModule</title>
<path fill="none" stroke="black" d="M2240,-122.051C2240,-136.373 2240,-154 2240,-154 2240,-154 2317.12,-154 2317.12,-154"/>
<polygon fill="black" stroke="black" points="2317.12,-157.5 2327.12,-154 2317.12,-150.5 2317.12,-157.5"/>
</g>
<!-- CurrencyConverterPipe -->
<g id="node19" class="node"><title>CurrencyConverterPipe</title>
<polygon fill="#ffffb3" stroke="black" points="2182.45,-122 2033.55,-122 2033.55,-86 2182.45,-86 2182.45,-122"/>
<text text-anchor="middle" x="2108" y="-99.8" font-family="Times,serif" font-size="14.00">CurrencyConverterPipe</text>
</g>
<!-- CurrencyConverterPipe&#45;&gt;AppModule -->
<g id="edge19" class="edge"><title>CurrencyConverterPipe&#45;&gt;AppModule</title>
<path fill="none" stroke="black" d="M2108,-122.187C2108,-137.182 2108,-156 2108,-156 2108,-156 2317.07,-156 2317.07,-156"/>
<polygon fill="black" stroke="black" points="2317.07,-159.5 2327.07,-156 2317.07,-152.5 2317.07,-159.5"/>
</g>
<!-- DateRangePicker -->
<g id="node20" class="node"><title>DateRangePicker</title>
<polygon fill="#ffffb3" stroke="black" points="2015.96,-122 1902.04,-122 1902.04,-86 2015.96,-86 2015.96,-122"/>
<text text-anchor="middle" x="1959" y="-99.8" font-family="Times,serif" font-size="14.00">DateRangePicker</text>
</g>
<!-- DateRangePicker&#45;&gt;AppModule -->
<g id="edge20" class="edge"><title>DateRangePicker&#45;&gt;AppModule</title>
<path fill="none" stroke="black" d="M1959,-122.282C1959,-137.948 1959,-158 1959,-158 1959,-158 2317.05,-158 2317.05,-158"/>
<polygon fill="black" stroke="black" points="2317.05,-161.5 2327.05,-158 2317.05,-154.5 2317.05,-161.5"/>
</g>
<!-- ProgressBarCustom -->
<g id="node21" class="node"><title>ProgressBarCustom</title>
<polygon fill="#ffffb3" stroke="black" points="1883.98,-122 1756.02,-122 1756.02,-86 1883.98,-86 1883.98,-122"/>
<text text-anchor="middle" x="1820" y="-99.8" font-family="Times,serif" font-size="14.00">ProgressBarCustom</text>
</g>
<!-- ProgressBarCustom&#45;&gt;AppModule -->
<g id="edge21" class="edge"><title>ProgressBarCustom&#45;&gt;AppModule</title>
<path fill="none" stroke="black" d="M1820,-122.027C1820,-138.398 1820,-160 1820,-160 1820,-160 2317.29,-160 2317.29,-160"/>
<polygon fill="black" stroke="black" points="2317.29,-163.5 2327.29,-160 2317.29,-156.5 2317.29,-163.5"/>
</g>
<!-- AppComponent  -->
<g id="node30" class="node"><title>AppComponent </title>
<polygon fill="#80b1d3" stroke="black" points="2423.44,-252 2314.56,-252 2314.56,-216 2423.44,-216 2423.44,-252"/>
<text text-anchor="middle" x="2369" y="-229.8" font-family="Times,serif" font-size="14.00">AppComponent </text>
</g>
<!-- AppModule&#45;&gt;AppComponent  -->
<g id="edge29" class="edge"><title>AppModule&#45;&gt;AppComponent </title>
<path fill="none" stroke="black" stroke-dasharray="1,5" d="M2369,-187.106C2369,-187.106 2369,-205.991 2369,-205.991"/>
<polygon fill="black" stroke="black" points="2365.5,-205.991 2369,-215.991 2372.5,-205.991 2365.5,-205.991"/>
</g>
<!-- HttpModule -->
<g id="node23" class="node"><title>HttpModule</title>
<polygon fill="#8dd3c7" stroke="black" points="1732.44,-122 1729.44,-126 1708.44,-126 1705.44,-122 1647.56,-122 1647.56,-86 1732.44,-86 1732.44,-122"/>
<text text-anchor="middle" x="1690" y="-99.8" font-family="Times,serif" font-size="14.00">HttpModule</text>
</g>
<!-- HttpModule&#45;&gt;AppModule -->
<g id="edge22" class="edge"><title>HttpModule&#45;&gt;AppModule</title>
<path fill="none" stroke="black" d="M1690,-122.034C1690,-139.06 1690,-162 1690,-162 1690,-162 2317.29,-162 2317.29,-162"/>
<polygon fill="black" stroke="black" points="2317.29,-165.5 2327.29,-162 2317.29,-158.5 2317.29,-165.5"/>
</g>
<!-- BrowserModule -->
<g id="node24" class="node"><title>BrowserModule</title>
<polygon fill="#8dd3c7" stroke="black" points="1629.47,-122 1626.47,-126 1605.47,-126 1602.47,-122 1522.53,-122 1522.53,-86 1629.47,-86 1629.47,-122"/>
<text text-anchor="middle" x="1576" y="-99.8" font-family="Times,serif" font-size="14.00">BrowserModule</text>
</g>
<!-- BrowserModule&#45;&gt;AppModule -->
<g id="edge23" class="edge"><title>BrowserModule&#45;&gt;AppModule</title>
<path fill="none" stroke="black" d="M1576,-122.002C1576,-139.675 1576,-164 1576,-164 1576,-164 2317.2,-164 2317.2,-164"/>
<polygon fill="black" stroke="black" points="2317.2,-167.5 2327.2,-164 2317.2,-160.5 2317.2,-167.5"/>
</g>
<!-- FormsModule -->
<g id="node25" class="node"><title>FormsModule</title>
<polygon fill="#8dd3c7" stroke="black" points="1504.83,-122 1501.83,-126 1480.83,-126 1477.83,-122 1409.17,-122 1409.17,-86 1504.83,-86 1504.83,-122"/>
<text text-anchor="middle" x="1457" y="-99.8" font-family="Times,serif" font-size="14.00">FormsModule</text>
</g>
<!-- FormsModule&#45;&gt;AppModule -->
<g id="edge24" class="edge"><title>FormsModule&#45;&gt;AppModule</title>
<path fill="none" stroke="black" d="M1457,-122.267C1457,-140.555 1457,-166 1457,-166 1457,-166 2317.14,-166 2317.14,-166"/>
<polygon fill="black" stroke="black" points="2317.14,-169.5 2327.14,-166 2317.14,-162.5 2317.14,-169.5"/>
</g>
<!-- Ng2BootstrapModule -->
<g id="node26" class="node"><title>Ng2BootstrapModule</title>
<polygon fill="#8dd3c7" stroke="black" points="1391.09,-122 1388.09,-126 1367.09,-126 1364.09,-122 1252.91,-122 1252.91,-86 1391.09,-86 1391.09,-122"/>
<text text-anchor="middle" x="1322" y="-99.8" font-family="Times,serif" font-size="14.00">Ng2BootstrapModule</text>
</g>
<!-- Ng2BootstrapModule&#45;&gt;AppModule -->
<g id="edge25" class="edge"><title>Ng2BootstrapModule&#45;&gt;AppModule</title>
<path fill="none" stroke="black" d="M1322,-122.169C1322,-141.09 1322,-168 1322,-168 1322,-168 2317.31,-168 2317.31,-168"/>
<polygon fill="black" stroke="black" points="2317.31,-171.5 2327.31,-168 2317.31,-164.5 2317.31,-171.5"/>
</g>
<!-- ChartsModule -->
<g id="node27" class="node"><title>ChartsModule</title>
<polygon fill="#8dd3c7" stroke="black" points="1235.1,-122 1232.1,-126 1211.1,-126 1208.1,-122 1138.9,-122 1138.9,-86 1235.1,-86 1235.1,-122"/>
<text text-anchor="middle" x="1187" y="-99.8" font-family="Times,serif" font-size="14.00">ChartsModule</text>
</g>
<!-- ChartsModule&#45;&gt;AppModule -->
<g id="edge26" class="edge"><title>ChartsModule&#45;&gt;AppModule</title>
<path fill="none" stroke="black" d="M1187,-122.308C1187,-142.146 1187,-171 1187,-171 1187,-171 2317.28,-171 2317.28,-171"/>
<polygon fill="black" stroke="black" points="2317.28,-174.5 2327.28,-171 2317.28,-167.5 2317.28,-174.5"/>
</g>
<!-- JsonpModule -->
<g id="node28" class="node"><title>JsonpModule</title>
<polygon fill="#8dd3c7" stroke="black" points="1120.94,-122 1117.94,-126 1096.94,-126 1093.94,-122 1029.06,-122 1029.06,-86 1120.94,-86 1120.94,-122"/>
<text text-anchor="middle" x="1075" y="-99.8" font-family="Times,serif" font-size="14.00">JsonpModule</text>
</g>
<!-- JsonpModule&#45;&gt;AppModule -->
<g id="edge27" class="edge"><title>JsonpModule&#45;&gt;AppModule</title>
<path fill="none" stroke="black" d="M1075,-122.129C1075,-142.572 1075,-173 1075,-173 1075,-173 2317.05,-173 2317.05,-173"/>
<polygon fill="black" stroke="black" points="2317.05,-176.5 2327.05,-173 2317.05,-169.5 2317.05,-176.5"/>
</g>
<!-- RouterModule.forRoot(args) -->
<g id="node29" class="node"><title>RouterModule.forRoot(args)</title>
<polygon fill="#8dd3c7" stroke="black" points="1011.84,-122 1008.84,-126 987.842,-126 984.842,-122 834.158,-122 834.158,-86 1011.84,-86 1011.84,-122"/>
<text text-anchor="middle" x="923" y="-99.8" font-family="Times,serif" font-size="14.00">RouterModule.forRoot(args)</text>
</g>
<!-- RouterModule.forRoot(args)&#45;&gt;AppModule -->
<g id="edge28" class="edge"><title>RouterModule.forRoot(args)&#45;&gt;AppModule</title>
<path fill="none" stroke="black" d="M923,-122.284C923,-143.321 923,-175 923,-175 923,-175 2317.28,-175 2317.28,-175"/>
<polygon fill="black" stroke="black" points="2317.28,-178.5 2327.28,-175 2317.28,-171.5 2317.28,-178.5"/>
</g>
<!-- AuthGuard -->
<g id="node31" class="node"><title>AuthGuard</title>
<ellipse fill="#fdb462" stroke="black" cx="756" cy="-104" rx="54.4566" ry="18"/>
<text text-anchor="middle" x="756" y="-99.8" font-family="Times,serif" font-size="14.00">AuthGuard</text>
</g>
<!-- AuthGuard&#45;&gt;AppModule -->
<g id="edge30" class="edge"><title>AuthGuard&#45;&gt;AppModule</title>
<path fill="none" stroke="black" d="M756,-122.045C756,-143.662 756,-177 756,-177 756,-177 2317.1,-177 2317.1,-177"/>
<polygon fill="black" stroke="black" points="2317.1,-180.5 2327.1,-177 2317.1,-173.5 2317.1,-180.5"/>
</g>
<!-- AUTH_PROVIDERS -->
<g id="node32" class="node"><title>AUTH_PROVIDERS</title>
<ellipse fill="#fdb462" stroke="black" cx="587" cy="-104" rx="96.1478" ry="18"/>
<text text-anchor="middle" x="587" y="-99.8" font-family="Times,serif" font-size="14.00">AUTH_PROVIDERS</text>
</g>
<!-- AUTH_PROVIDERS&#45;&gt;AppModule -->
<g id="edge31" class="edge"><title>AUTH_PROVIDERS&#45;&gt;AppModule</title>
<path fill="none" stroke="black" d="M587,-122.155C587,-144.352 587,-179 587,-179 587,-179 2317.14,-179 2317.14,-179"/>
<polygon fill="black" stroke="black" points="2317.14,-182.5 2327.14,-179 2317.14,-175.5 2317.14,-182.5"/>
</g>
<!-- MetricsService -->
<g id="node33" class="node"><title>MetricsService</title>
<ellipse fill="#fdb462" stroke="black" cx="403" cy="-104" rx="69.4742" ry="18"/>
<text text-anchor="middle" x="403" y="-99.8" font-family="Times,serif" font-size="14.00">MetricsService</text>
</g>
<!-- MetricsService&#45;&gt;AppModule -->
<g id="edge32" class="edge"><title>MetricsService&#45;&gt;AppModule</title>
<path fill="none" stroke="black" d="M403,-122.248C403,-145.018 403,-181 403,-181 403,-181 2317.03,-181 2317.03,-181"/>
<polygon fill="black" stroke="black" points="2317.03,-184.5 2327.03,-181 2317.03,-177.5 2317.03,-184.5"/>
</g>
<!-- FbmanagerService -->
<g id="node34" class="node"><title>FbmanagerService</title>
<ellipse fill="#fdb462" stroke="black" cx="232" cy="-104" rx="83.3654" ry="18"/>
<text text-anchor="middle" x="232" y="-99.8" font-family="Times,serif" font-size="14.00">FbmanagerService</text>
</g>
<!-- FbmanagerService&#45;&gt;AppModule -->
<g id="edge33" class="edge"><title>FbmanagerService&#45;&gt;AppModule</title>
<path fill="none" stroke="black" d="M232,-122.323C232,-145.66 232,-183 232,-183 232,-183 2317.27,-183 2317.27,-183"/>
<polygon fill="black" stroke="black" points="2317.27,-186.5 2327.27,-183 2317.27,-179.5 2317.27,-186.5"/>
</g>
<!-- JwtService -->
<g id="node35" class="node"><title>JwtService</title>
<ellipse fill="#fdb462" stroke="black" cx="77" cy="-104" rx="53.3052" ry="18"/>
<text text-anchor="middle" x="77" y="-99.8" font-family="Times,serif" font-size="14.00">JwtService</text>
</g>
<!-- JwtService&#45;&gt;AppModule -->
<g id="edge34" class="edge"><title>JwtService&#45;&gt;AppModule</title>
<path fill="none" stroke="black" d="M77,-122.38C77,-146.279 77,-185 77,-185 77,-185 2317.26,-185 2317.26,-185"/>
<polygon fill="black" stroke="black" points="2317.26,-188.5 2327.26,-185 2317.26,-181.5 2317.26,-188.5"/>
</g>
</g>
</svg>
